<svg width="14" height="14" fill="none" xmlns="http://www.w3.org/2000/svg"><path d="M13.38 4.593a.518.518 0 00-.171-.152.436.436 0 00-.21-.055h-3V2.023c0-.47-.157-.921-.439-1.254C9.28.437 8.898.25 8.5.25h-3c-.398 0-.78.187-1.06.52-.282.332-.44.783-.44 1.253v2.363H1a.435.435 0 00-.21.052.516.516 0 00-.173.151.63.63 0 00-.103.223.695.695 0 00-.014.254l.94 7.18c.036.281.157.538.34.723a.912.912 0 00.66.28h9.13a.913.913 0 00.659-.28c.184-.185.305-.442.34-.724l.93-7.18a.695.695 0 00-.015-.251.627.627 0 00-.104-.22zM5 2.023a.65.65 0 01.146-.418.465.465 0 01.354-.173h3c.132 0 .26.062.353.173A.65.65 0 019 2.023v2.363H5V2.023zm6.57 10.045H2.43l-.845-6.5h10.83l-.845 6.5z" fill="currentColor"/></svg>
