<svg width="24" height="24" fill="none" xmlns="http://www.w3.org/2000/svg"><path d="M12 .48C5.639.48.48 5.638.48 12c0 6.363 5.158 11.52 11.52 11.52 6.363 0 11.52-5.157 11.52-11.52C23.52 5.639 18.363.48 12 .48zm4.686 9.437c.005.099.006.197.006.293 0 3-2.28 6.457-6.454 6.457a6.403 6.403 0 01-3.478-1.02c.176.022.358.03.541.03a4.544 4.544 0 002.818-.97 2.274 2.274 0 01-2.12-1.575c.34.065.69.051 1.024-.04a2.27 2.27 0 01-1.82-2.224v-.028c.306.17.656.273 1.028.284a2.268 2.268 0 01-.702-3.03 6.451 6.451 0 004.677 2.372 2.269 2.269 0 013.866-2.07c.508-.1.995-.287 1.44-.551a2.28 2.28 0 01-.997 1.256 4.56 4.56 0 001.303-.359 4.602 4.602 0 01-1.132 1.175z" fill="#fff"/></svg>
