<svg width="24" height="24" fill="none" xmlns="http://www.w3.org/2000/svg"><path d="M12 24c-1.625 0-3.18-.316-4.664-.95-1.484-.632-2.762-1.484-3.832-2.554-1.07-1.07-1.922-2.348-2.555-3.832A11.773 11.773 0 010 12c0-1.625.316-3.18.95-4.664.632-1.484 1.484-2.762 2.554-3.832 1.07-1.07 2.348-1.922 3.832-2.555C8.82.316 10.375 0 12 0c1.625 0 3.18.316 4.664.95 1.484.632 2.762 1.484 3.832 2.554 1.07 1.07 1.922 2.348 2.555 3.832C23.684 8.82 24 10.375 24 12c0 1.625-.316 3.18-.95 4.664-.632 1.484-1.484 2.762-2.554 3.832-1.07 1.07-2.348 1.922-3.832 2.555C15.18 23.684 13.625 24 12 24zm6-16.5a1.46 1.46 0 00-.434-1.055A1.43 1.43 0 0016.5 6h-9c-.406 0-.758.148-1.055.445A1.442 1.442 0 006 7.5V9h2.672C9.578 8 10.687 7.5 12 7.5c1.313 0 2.422.5 3.328 1.5H18V7.5zM9 12c0 .828.293 1.535.879 2.121A2.89 2.89 0 0012 15a2.89 2.89 0 002.121-.879A2.89 2.89 0 0015 12a2.89 2.89 0 00-.879-2.121A2.89 2.89 0 0012 9a2.89 2.89 0 00-2.121.879A2.89 2.89 0 009 12zm9-1.5h-1.781A4.38 4.38 0 0116.5 12c0 1.25-.438 2.313-1.313 3.188-.874.874-1.937 1.312-3.187 1.312-1.25 0-2.313-.438-3.188-1.313C7.939 14.313 7.5 13.25 7.5 12c0-.484.094-.984.281-1.5H6v6c0 .422.145.777.434 1.066.289.29.644.434 1.066.434h9a1.45 1.45 0 001.066-.434c.29-.289.434-.644.434-1.066v-6z" fill="#fff"/></svg>
